<svg width="349" height="345" viewBox="0 0 349 345" fill="none" xmlns="http://www.w3.org/2000/svg">
<g opacity="0.75">
<path d="M171.865 77.5228C173.696 76.0498 176.304 76.0498 178.135 77.5228L224.515 114.848L274.346 147.424C276.313 148.71 277.119 151.191 276.283 153.387L255.117 209.032L239.534 266.49C238.919 268.758 236.808 270.291 234.462 270.175L175 267.24L115.538 270.175C113.192 270.291 111.081 268.758 110.466 266.49L94.883 209.032L73.7165 153.387C72.8812 151.191 73.6874 148.71 75.6539 147.424L125.485 114.848L171.865 77.5228Z" fill="#C9C9C9"/>
<circle cx="175" cy="75" r="75" fill="#0084BC" fill-opacity="0.75"/>
<circle opacity="0.5" cx="75" cy="150" r="75" fill="#D90000" fill-opacity="0.75"/>
<circle cx="113" cy="270" r="75" fill="#00BC08" fill-opacity="0.75"/>
<circle cx="237" cy="270" r="75" fill="#8000BC" fill-opacity="0.75"/>
<circle cx="274" cy="150" r="75" fill="#BC6600" fill-opacity="0.75"/>
</g>
</svg>
